<?xml version="1.0" encoding="utf-8"?>
<!-- Generator: Adobe Illustrator 23.0.6, SVG Export Plug-In . SVG Version: 6.00 Build 0)  -->
<svg version="1.1" id="Слой_1" xmlns="http://www.w3.org/2000/svg" xmlns:xlink="http://www.w3.org/1999/xlink" x="0px" y="0px"
	 viewBox="0 0 1770 337" style="enable-background:new 0 0 1770 337;" xml:space="preserve">
<style type="text/css">
	.st0{fill:#333333;}
	.st1{opacity:0.5;fill:none;stroke:#FFFFFF;stroke-linecap:round;stroke-dasharray:1.000000e-03,5;enable-background:new    ;}
</style>
<rect class="st0" width="1770" height="337"/>
<path class="st1" d="M925.2,106.9C965,75,1014,50,1066,46c76-6,146,35,198.7,86.3"/>
<path class="st1" d="M504.5,132.9c17.8-17.4,37.8-32.7,59.1-45.6c10.7-6.5,21.8-12.4,33.2-17.8c2.8-1.3,5.2-1.5,8-2.4
	c3.1-1,6.2-3,9.2-4.3c6.1-2.6,12.3-4.9,18.6-6.9c25.4-7.8,52.2-10.2,78.6-9.2c24.5,1,48.9,7.4,71.4,16.7
	c22.8,9.4,44.1,22.3,63.5,37.6c2.4,1.9,4.7,3.8,7.1,5.8"/>
</svg>
